<?xml version="1.0" standalone="no"?>
<!DOCTYPE svg PUBLIC "-//W3C//DTD SVG 20010904//EN"
 "http://www.w3.org/TR/2001/REC-SVG-20010904/DTD/svg10.dtd">
<svg version="1.0" xmlns="http://www.w3.org/2000/svg"
 width="960.000000pt" height="640.000000pt" viewBox="0 0 960.000000 640.000000"
 preserveAspectRatio="xMidYMid meet">

<g transform="translate(0.000000,640.000000) scale(0.100000,-0.100000)"
fill="#000000" stroke="none">
<path d="M6815 5470 c0 -38 8 -50 19 -31 3 4 33 19 66 31 33 12 63 27 66 31 3
5 -30 9 -73 9 l-79 0 1 -40z m74 16 c-2 -2 -15 -9 -29 -16 -23 -12 -24 -12
-11 3 7 10 20 17 29 17 8 0 13 -2 11 -4z"/>
<path d="M6951 5265 c-66 -22 -115 -46 -66 -33 11 3 55 15 97 26 l77 21 238
-60 c314 -79 543 -131 557 -126 6 2 -61 20 -149 41 -88 20 -254 61 -370 91
-267 68 -290 70 -384 40z"/>
<path d="M6705 5185 c-55 -18 -93 -33 -85 -33 8 -1 60 14 115 33 55 18 93 33
85 33 -8 0 -60 -15 -115 -33z"/>
<path d="M6565 5140 c-8 -13 5 -13 25 0 13 8 13 10 -2 10 -9 0 -20 -4 -23 -10z"/>
<path d="M6518 5123 c7 -3 16 -2 19 1 4 3 -2 6 -13 5 -11 0 -14 -3 -6 -6z"/>
<path d="M6405 5090 c-13 -6 -15 -9 -5 -9 8 0 22 4 30 9 18 12 2 12 -25 0z"/>
<path d="M7885 5080 c15 -7 408 -109 635 -166 14 -3 34 -9 45 -14 11 -4 36
-13 55 -19 l35 -10 -37 2 c-20 2 -34 -1 -32 -5 3 -4 -3 -8 -13 -9 -48 -1 -152
-12 -188 -19 l-40 -8 35 -2 35 -1 -39 -15 c-24 -9 -53 -11 -79 -7 -29 4 -38 3
-33 -6 4 -6 -2 -15 -16 -21 -41 -18 2 -10 357 65 39 8 85 18 103 23 29 6 7 14
-165 59 -109 29 -299 77 -422 108 -214 53 -282 66 -236 45z m422 -286 c-3 -3
-12 -4 -19 -1 -8 3 -5 6 6 6 11 1 17 -2 13 -5z"/>
<path d="M6760 5050 c-33 -22 -347 -118 -620 -190 -107 -29 -201 -53 -207 -56
-9 -2 -13 -25 -13 -68 l0 -65 33 6 c17 3 37 10 43 15 7 5 61 -1 135 -16 68
-13 142 -26 164 -30 81 -11 -8 14 -149 42 -102 21 -141 33 -148 46 -6 10 -6
21 -2 26 5 4 56 20 114 35 58 15 131 35 163 45 62 19 60 21 57 -43 -2 -54 10
-137 21 -137 5 0 9 46 9 103 l0 102 194 65 194 65 7 -192 c4 -106 5 -204 3
-217 -4 -21 -1 -24 22 -24 15 1 31 -2 36 -5 5 -3 8 91 6 225 -3 217 -2 229 15
224 10 -3 164 -40 343 -82 179 -42 330 -81 336 -85 8 -7 11 -68 10 -200 -2
-104 1 -192 5 -195 4 -2 9 83 11 190 1 107 5 197 8 200 3 2 70 -11 150 -31 81
-19 146 -31 148 -25 1 5 14 7 29 4 l26 -5 -24 -13 c-24 -13 -24 -13 -2 -14 12
0 46 5 75 11 39 9 53 9 56 0 4 -13 42 -15 42 -3 0 10 -98 42 -129 42 -13 0
-57 8 -99 19 -43 10 -108 26 -147 35 -38 8 -243 56 -455 105 -471 109 -442
103 -460 91z"/>
<path d="M6258 5043 c7 -3 16 -2 19 1 4 3 -2 6 -13 5 -11 0 -14 -3 -6 -6z"/>
<path d="M7960 4965 c14 -8 48 -14 75 -14 l50 1 -60 14 c-78 17 -96 17 -65 -1z"/>
<path d="M8115 4940 c-4 -6 6 -10 22 -10 22 0 25 2 13 10 -19 12 -27 12 -35 0z"/>
<path d="M8205 4923 c-33 -8 -45 -27 -12 -19 16 4 27 2 27 -4 0 -12 275 -9
287 3 3 4 -15 7 -40 7 -26 0 -47 3 -47 8 0 4 -16 8 -35 9 -21 2 -35 -2 -35 -8
0 -11 -12 -10 -100 5 -14 2 -34 2 -45 -1z"/>
<path d="M6068 4883 c7 -3 16 -2 19 1 4 3 -2 6 -13 5 -11 0 -14 -3 -6 -6z"/>
<path d="M8538 4883 c7 -3 16 -2 19 1 4 3 -2 6 -13 5 -11 0 -14 -3 -6 -6z"/>
<path d="M5895 4834 c-44 -13 -120 -35 -170 -48 -49 -14 -198 -55 -330 -92
-132 -37 -309 -86 -393 -109 -139 -38 -151 -42 -127 -53 22 -10 25 -17 25 -68
0 -41 3 -55 13 -52 6 3 44 13 82 22 39 9 90 23 115 31 25 8 83 21 130 30 47 9
117 24 155 34 76 19 72 12 74 107 1 41 1 41 49 52 89 20 124 30 134 40 6 6 -1
8 -19 6 l-28 -4 29 10 c16 5 43 7 60 5 27 -4 28 -4 6 3 -22 7 -16 11 45 27 39
10 75 21 80 25 6 4 41 15 78 25 37 10 70 22 73 27 3 4 4 8 2 7 -2 0 -39 -11
-83 -25z m-532 -241 c-7 -2 -19 -2 -25 0 -7 3 -2 5 12 5 14 0 19 -2 13 -5z"/>
<path d="M8268 4833 c6 -2 18 -2 25 0 6 3 1 5 -13 5 -14 0 -19 -2 -12 -5z"/>
<path d="M8138 4793 c6 -2 18 -2 25 0 6 3 1 5 -13 5 -14 0 -19 -2 -12 -5z"/>
<path d="M8155 4771 c-11 -5 -24 -6 -30 -3 -5 3 -5 -1 2 -8 8 -8 24 -10 55 -5
35 6 39 9 23 16 -25 9 -25 9 -50 0z"/>
<path d="M8060 4760 c0 -5 4 -10 9 -10 6 0 13 5 16 10 3 6 -1 10 -9 10 -9 0
-16 -4 -16 -10z"/>
<path d="M7820 4750 c-8 -6 -25 -10 -38 -10 l-22 0 2 -162 3 -162 35 -7 c19
-4 36 -7 37 -6 4 5 7 346 3 351 -3 3 -12 1 -20 -4z"/>
<path d="M7943 4743 c9 -2 23 -2 30 0 6 3 -1 5 -18 5 -16 0 -22 -2 -12 -5z"/>
<path d="M8038 4723 c7 -3 16 -2 19 1 4 3 -2 6 -13 5 -11 0 -14 -3 -6 -6z"/>
<path d="M6340 4640 c0 -5 5 -10 10 -10 6 0 10 5 10 10 0 6 -4 10 -10 10 -5 0
-10 -4 -10 -10z"/>
<path d="M6370 4636 c0 -2 7 -6 15 -10 8 -3 15 -1 15 4 0 6 -7 10 -15 10 -8 0
-15 -2 -15 -4z"/>
<path d="M6470 4615 c63 -16 81 -18 60 -6 -8 5 -37 12 -65 15 l-50 6 55 -15z"/>
<path d="M6595 4590 c17 -4 44 -8 60 -8 l30 0 -30 8 c-16 4 -43 8 -60 8 l-30
0 30 -8z"/>
<path d="M6703 4573 c9 -2 23 -2 30 0 6 3 -1 5 -18 5 -16 0 -22 -2 -12 -5z"/>
<path d="M6841 4556 c7 -8 190 -40 344 -61 66 -9 128 -19 138 -21 9 -3 17 -1
17 3 0 5 -72 20 -160 33 -88 13 -156 27 -150 30 6 4 -11 6 -37 6 -27 0 -73 3
-103 7 -30 5 -52 6 -49 3z"/>
<path d="M7050 4550 c0 -5 7 -7 15 -4 8 4 15 8 15 10 0 2 -7 4 -15 4 -8 0 -15
-4 -15 -10z"/>
<path d="M7532 4360 c0 -14 2 -19 5 -12 2 6 2 18 0 25 -3 6 -5 1 -5 -13z"/>
<path d="M6137 4340 c-3 -11 -1 -23 4 -26 5 -3 9 6 9 20 0 31 -6 34 -13 6z"/>
<path d="M6023 4333 c9 -2 23 -2 30 0 6 3 -1 5 -18 5 -16 0 -22 -2 -12 -5z"/>
<path d="M6098 4323 c7 -3 16 -2 19 1 4 3 -2 6 -13 5 -11 0 -14 -3 -6 -6z"/>
<path d="M6340 4289 c0 -5 9 -9 20 -9 11 0 20 2 20 4 0 2 -9 6 -20 9 -11 3
-20 1 -20 -4z"/>
<path d="M6545 4255 c165 -24 201 -28 194 -21 -7 7 -287 46 -322 45 -18 -1 40
-12 128 -24z"/>
<path d="M6760 4230 c0 -6 17 -10 37 -10 43 0 41 5 -4 13 -19 4 -33 2 -33 -3z"/>
<path d="M6875 4209 c22 -4 56 -8 75 -7 33 0 32 1 -10 9 -25 4 -58 7 -75 7
-26 0 -25 -1 10 -9z"/>
<path d="M7003 4193 c9 -2 23 -2 30 0 6 3 -1 5 -18 5 -16 0 -22 -2 -12 -5z"/>
<path d="M7095 4180 c28 -5 66 -8 85 -8 32 0 31 1 -10 9 -25 4 -63 7 -85 7
-39 -1 -39 -1 10 -8z"/>
<path d="M7221 4166 c2 -2 60 -11 129 -20 69 -9 163 -23 210 -31 47 -7 112
-16 145 -20 33 -3 73 -8 89 -11 17 -4 26 -2 23 3 -4 6 -32 13 -64 17 -59 6
-171 21 -233 30 -190 29 -309 41 -299 32z"/>
<path d="M5790 4134 c-8 -2 -114 -22 -235 -44 -121 -22 -236 -45 -255 -50 -83
-22 85 3 295 45 121 24 231 45 245 48 22 4 21 4 -5 4 -16 1 -37 -1 -45 -3z"/>
<path d="M6423 4093 c9 -2 25 -2 35 0 9 3 1 5 -18 5 -19 0 -27 -2 -17 -5z"/>
<path d="M7838 4083 c7 -3 16 -2 19 1 4 3 -2 6 -13 5 -11 0 -14 -3 -6 -6z"/>
<path d="M6598 4073 c12 -2 32 -2 45 0 12 2 2 4 -23 4 -25 0 -35 -2 -22 -4z"/>
<path d="M6701 4066 c10 -8 89 -13 83 -5 -3 5 -24 9 -46 9 -23 0 -39 -2 -37
-4z"/>
<path d="M6808 4053 c6 -2 18 -2 25 0 6 3 1 5 -13 5 -14 0 -19 -2 -12 -5z"/>
<path d="M6970 4035 c58 -8 150 -19 205 -26 55 -7 109 -19 120 -27 19 -13 19
-14 -5 -7 -19 5 -22 4 -10 -4 8 -6 29 -11 45 -11 17 0 25 4 18 8 -6 4 9 7 33
8 24 0 44 0 44 -2 0 -2 -16 -11 -35 -20 -41 -19 -37 -34 9 -34 18 0 57 -4 87
-10 30 -5 73 -11 97 -13 23 -2 45 -7 49 -11 9 -9 -63 -7 -132 4 -33 5 -132 14
-220 20 -187 13 -219 16 -380 35 -382 45 -467 53 -485 45 -8 -5 -77 -17 -154
-29 -76 -12 -142 -24 -147 -27 -5 -3 -8 -47 -7 -97 l2 -92 3 82 4 82 47 7 c26
3 93 14 150 23 56 10 105 15 107 12 3 -2 5 -156 5 -342 l0 -338 28 3 27 3 0
339 c0 333 0 339 20 337 26 -2 481 -53 520 -59 l30 -4 -3 -91 -3 -91 28 4 28
3 3 -238 c2 -227 3 -239 22 -244 14 -4 21 -18 26 -52 8 -44 8 -45 15 -16 5 24
7 19 8 -24 1 -69 8 -63 14 12 4 44 1 57 -9 57 -8 0 -14 4 -14 10 0 5 6 9 13 7
9 -1 13 66 15 306 1 199 6 306 12 302 6 -4 10 -120 10 -307 0 -166 3 -299 6
-295 3 3 5 68 4 144 0 76 2 223 6 327 l7 188 76 -6 c42 -4 97 -9 123 -12 l46
-6 4 -55 c1 -30 -1 -58 -6 -64 -20 -19 11 -26 84 -19 42 5 107 10 145 11 l70
4 0 -260 1 -260 29 -5 c17 -3 45 -4 63 -2 l32 4 0 294 c0 227 3 296 13 299 6
2 40 6 75 9 l62 5 -2 -177 c-3 -167 -4 -177 -22 -177 -21 0 -48 -41 -60 -89
-4 -17 -4 -101 0 -188 l7 -159 56 3 c63 3 57 -10 60 121 l1 57 43 0 c23 0 67
3 97 7 51 7 52 8 21 13 -34 5 -35 6 -53 85 -22 92 -39 136 -50 129 -4 -3 -8
60 -8 139 l0 144 112 6 c61 4 113 6 114 4 1 -1 4 -180 6 -397 3 -356 5 -395
20 -398 11 -2 16 4 14 22 0 13 -4 22 -9 19 -4 -2 -6 48 -5 111 3 113 5 121 36
117 11 -2 13 47 12 271 -1 150 -2 287 -1 303 l1 31 103 14 c66 10 124 12 163
8 85 -11 92 -3 9 11 -56 9 -90 8 -175 -3 -142 -20 -218 -33 -327 -57 -90 -19
-94 -19 -118 -2 -13 10 -25 23 -25 29 0 5 41 16 91 24 74 11 88 15 77 26 -15
14 -532 88 -938 134 -52 6 -129 15 -170 20 -41 5 -118 12 -170 14 l-95 5 105
-14z m769 -161 c8 -8 -78 -1 -91 8 -7 4 9 5 37 2 27 -3 52 -7 54 -10z m59 -11
c-10 -2 -26 -2 -35 0 -10 3 -2 5 17 5 19 0 27 -2 18 -5z m112 -3 c0 -5 -5 -10
-11 -10 -5 0 -7 5 -4 10 3 6 8 10 11 10 2 0 4 -4 4 -10z m-165 -30 c7 -12 -32
-12 -60 0 -16 7 -13 9 17 9 20 1 40 -3 43 -9z m625 -45 c0 -11 -11 -15 -37
-15 -49 0 -28 20 30 29 4 0 7 -6 7 -14z m-763 -11 c-3 -3 -12 -4 -19 -1 -8 3
-5 6 6 6 11 1 17 -2 13 -5z"/>
<path d="M5160 4014 l-55 -13 53 6 c29 3 65 9 80 13 l27 8 -25 0 c-14 0 -50
-6 -80 -14z"/>
<path d="M5045 3990 c-4 -7 3 -8 22 -4 38 9 42 14 10 14 -14 0 -29 -5 -32 -10z"/>
<path d="M4953 3973 c9 -2 23 -2 30 0 6 3 -1 5 -18 5 -16 0 -22 -2 -12 -5z"/>
<path d="M5970 3909 c-25 -5 -63 -11 -85 -13 -22 -2 -40 -9 -39 -15 1 -6 2
-146 3 -311 l1 -300 25 0 25 0 1 213 c1 116 4 252 8 302 l6 89 82 16 c45 9 85
19 89 23 10 9 -60 7 -116 -4z"/>
<path d="M4990 3845 c0 -25 0 -48 0 -52 -1 -10 165 -32 245 -33 33 0 78 -5
100 -10 22 -5 61 -10 88 -11 l47 -3 0 -60 c0 -34 -4 -56 -8 -50 -9 15 -263 17
-295 3 -16 -7 -3 -8 48 -4 47 3 65 1 55 -5 -11 -7 -2 -10 32 -10 26 0 50 -5
54 -11 5 -9 -16 -10 -77 -7 -46 3 -93 2 -104 -2 -13 -6 10 -9 65 -10 47 -2 99
-6 115 -11 21 -5 3 -8 -60 -7 -131 2 -167 -1 -160 -12 4 -6 -20 -8 -69 -3
l-76 6 0 -31 c0 -28 3 -31 35 -34 20 -2 34 -7 33 -13 -2 -5 -18 -9 -35 -7 -25
3 -33 0 -33 -12 0 -12 11 -16 47 -16 49 0 49 -12 1 -24 -17 -4 -28 -2 -28 4 0
5 -4 10 -10 10 -6 0 -10 -43 -10 -110 l0 -110 38 5 c20 2 80 7 132 10 52 3
140 10 195 15 55 5 106 9 113 10 7 0 17 -10 22 -22 9 -23 9 -23 9 -2 1 19 9
22 61 28 l60 7 0 241 0 240 -35 -6 -36 -7 3 36 c2 41 4 41 113 49 39 2 81 7
94 10 30 7 52 26 30 26 -12 0 -12 2 1 11 12 8 10 9 -10 5 -140 -29 -239 -36
-487 -36 -145 1 -271 4 -279 7 -9 3 -12 13 -8 29 4 15 2 24 -5 24 -6 0 -11
-19 -11 -45z m63 -32 c-7 -2 -19 -2 -25 0 -7 3 -2 5 12 5 14 0 19 -2 13 -5z
m82 -3 c3 -5 -3 -10 -14 -10 -12 0 -21 5 -21 10 0 6 6 10 14 10 8 0 18 -4 21
-10z m310 -210 c3 -5 -3 -10 -15 -10 -12 0 -18 5 -15 10 3 6 10 10 15 10 5 0
12 -4 15 -10z m34 -42 c1 -5 -3 -8 -9 -8 -5 0 -10 12 -9 28 0 24 1 25 9 7 5
-11 9 -23 9 -27z m-222 -24 c-3 -3 -12 -4 -19 -1 -8 3 -5 6 6 6 11 1 17 -2 13
-5z m183 -18 c14 0 28 -5 32 -11 11 -15 10 -73 -2 -80 -5 -3 -10 -3 -10 2 0
14 -158 11 -164 -3 -6 -15 37 -24 120 -24 l64 0 0 -51 c0 -47 -2 -50 -22 -48
-13 2 -29 0 -36 -5 -7 -4 -25 -5 -39 -1 -24 6 -25 8 -11 22 9 8 32 15 52 16
22 1 36 6 36 14 0 11 -28 18 -54 14 -4 -1 -14 3 -21 9 -9 7 -21 7 -39 0 -34
-13 -39 -13 -30 1 4 8 0 9 -15 4 -20 -6 -21 -3 -21 52 0 32 -4 65 -9 73 -17
25 -1 31 72 24 40 -4 83 -7 97 -8z m-297 -3 c-13 -2 -33 -2 -45 0 -13 2 -3 4
22 4 25 0 35 -2 23 -4z m-20 -40 c-7 -2 -21 -2 -30 0 -10 3 -4 5 12 5 17 0 24
-2 18 -5z m47 -43 c0 -5 -16 -10 -35 -10 -19 0 -35 5 -35 10 0 6 16 10 35 10
19 0 35 -4 35 -10z m-90 -60 c0 -5 -6 -10 -14 -10 -8 0 -18 5 -21 10 -3 6 3
10 14 10 12 0 21 -4 21 -10z m255 -40 c3 -5 -1 -10 -10 -10 -9 0 -13 5 -10 10
3 6 8 10 10 10 2 0 7 -4 10 -10z m145 -61 c0 -11 -3 -11 -24 -3 -23 9 -20 23
4 17 11 -3 20 -9 20 -14z m-53 5 c-3 -3 -12 -4 -19 -1 -8 3 -5 6 6 6 11 1 17
-2 13 -5z"/>
<path d="M8818 3833 c7 -3 16 -2 19 1 4 3 -2 6 -13 5 -11 0 -14 -3 -6 -6z"/>
<path d="M8855 3820 c3 -5 8 -10 11 -10 2 0 4 5 4 10 0 6 -5 10 -11 10 -5 0
-7 -4 -4 -10z"/>
<path d="M5708 3753 c6 -2 18 -2 25 0 6 3 1 5 -13 5 -14 0 -19 -2 -12 -5z"/>
<path d="M4990 3738 c0 -10 21 -14 78 -16 134 -3 362 -26 349 -34 -7 -5 -3 -8
14 -8 21 0 26 5 25 22 -1 21 -7 23 -56 25 -30 1 -82 5 -115 8 -33 3 -113 8
-177 10 -93 5 -118 3 -118 -7z"/>
<path d="M5643 3743 c9 -2 23 -2 30 0 6 3 -1 5 -18 5 -16 0 -22 -2 -12 -5z"/>
<path d="M8190 3720 c0 -5 -7 -7 -16 -3 -14 5 -13 3 2 -15 20 -24 30 -29 18
-10 -4 6 1 17 11 25 17 12 17 13 2 13 -9 0 -17 -4 -17 -10z"/>
<path d="M8288 3723 c7 -3 16 -2 19 1 4 3 -2 6 -13 5 -11 0 -14 -3 -6 -6z"/>
<path d="M4785 3709 c-27 -5 -147 -27 -265 -48 -184 -34 -312 -56 -374 -65
-19 -3 -34 -16 -18 -16 9 0 12 -52 12 -189 0 -113 4 -192 10 -196 6 -4 11 64
12 187 l3 193 37 9 c65 16 67 11 65 -205 -2 -145 1 -189 11 -189 9 0 12 48 12
209 l0 208 46 7 c26 3 95 7 153 7 63 1 94 4 76 8 l-30 7 35 11 c41 14 275 53
314 53 16 0 25 4 21 10 -7 12 -50 11 -120 -1z"/>
<path d="M5168 3693 c7 -3 16 -2 19 1 4 3 -2 6 -13 5 -11 0 -14 -3 -6 -6z"/>
<path d="M5303 3683 c15 -2 37 -2 50 0 12 2 0 4 -28 4 -27 0 -38 -2 -22 -4z"/>
<path d="M4991 3623 c0 -11 3 -13 6 -5 2 6 9 10 14 6 5 -3 9 0 9 5 0 6 -7 11
-15 11 -8 0 -15 -8 -14 -17z"/>
<path d="M5030 3631 c0 -4 23 -13 50 -18 39 -8 50 -7 50 2 0 7 -7 16 -16 19
-24 9 -84 7 -84 -3z"/>
<path d="M6101 3624 c0 -11 3 -14 6 -6 3 7 2 16 -1 19 -3 4 -6 -2 -5 -13z"/>
<path d="M4748 3613 c12 -2 30 -2 40 0 9 3 -1 5 -23 4 -22 0 -30 -2 -17 -4z"/>
<path d="M5090 3586 c0 -9 30 -14 35 -6 4 6 -3 10 -14 10 -12 0 -21 -2 -21 -4z"/>
<path d="M6103 3490 c0 -36 2 -50 4 -32 2 17 2 47 0 65 -2 17 -4 3 -4 -33z"/>
<path d="M8215 3469 c-4 -6 -5 -12 -2 -15 2 -3 7 2 10 11 7 17 1 20 -8 4z"/>
<path d="M6560 3352 l0 -61 108 -3 c59 -2 128 -2 155 0 l47 3 0 55 c0 52 -1
54 -27 54 -16 1 -85 3 -155 6 l-128 6 0 -60z m197 -29 c-3 -10 -5 -4 -5 12 0
17 2 24 5 18 2 -7 2 -21 0 -30z"/>
<path d="M6103 3350 c0 -25 2 -35 4 -22 2 12 2 32 0 45 -2 12 -4 2 -4 -23z"/>
<path d="M6432 3240 c0 -14 2 -19 5 -12 2 6 2 18 0 25 -3 6 -5 1 -5 -13z"/>
<path d="M5870 3211 c-15 -9 -18 -50 -12 -213 2 -59 4 -68 21 -68 15 0 20 9
22 43 6 64 -1 247 -9 247 -4 0 -14 -5 -22 -9z"/>
<path d="M6424 3055 l0 -154 401 -1 400 0 2 85 c2 93 7 86 -64 89 -28 1 -28 0
-31 -66 l-3 -68 -260 4 c-143 1 -254 -1 -247 -5 7 -5 126 -9 263 -9 138 0 245
-4 238 -8 -6 -4 -162 -6 -347 -4 l-337 3 3 61 3 61 110 3 c61 2 131 5 158 6
l47 3 1 -45 c0 -40 1 -42 10 -20 6 14 8 33 5 43 -2 10 2 21 10 24 13 5 13 7 0
17 -8 6 -17 22 -19 36 -4 22 -4 21 -6 -6 l-1 -31 -151 -2 c-83 -1 -155 -4
-160 -7 -5 -3 -9 29 -9 70 0 42 -4 76 -8 76 -5 0 -8 -70 -8 -155z m785 -71 c1
-44 -1 -64 -8 -59 -13 7 -15 125 -3 125 5 0 10 -30 11 -66z"/>
<path d="M6760 3200 c0 -5 5 -10 10 -10 6 0 10 5 10 10 0 6 -4 10 -10 10 -5 0
-10 -4 -10 -10z"/>
<path d="M5493 3125 c0 -44 2 -61 4 -37 2 23 2 59 0 80 -2 20 -4 1 -4 -43z"/>
<path d="M6570 3174 c0 -11 5 -14 16 -10 9 3 24 6 35 6 10 0 19 5 19 10 0 6
-16 10 -35 10 -25 0 -35 -4 -35 -16z"/>
<path d="M6565 3140 c-3 -6 -3 -19 0 -30 5 -16 15 -20 53 -20 44 1 46 2 28 15
-23 18 -50 20 -40 4 4 -7 1 -10 -7 -7 -8 3 -13 15 -12 27 3 22 -11 29 -22 11z"/>
<path d="M7381 3100 c-1 -43 1 -46 24 -45 31 2 50 19 40 35 -6 9 -9 9 -15 1
-7 -12 -43 -4 -36 8 2 3 0 15 -5 26 -5 15 -8 8 -8 -25z"/>
<path d="M7835 3131 c-8 -15 -3 -121 7 -127 4 -3 8 27 8 65 0 69 -3 81 -15 62z"/>
<path d="M8423 3070 c0 -36 2 -50 4 -32 2 17 2 47 0 65 -2 17 -4 3 -4 -33z"/>
<path d="M4142 3050 c0 -19 2 -27 5 -17 2 9 2 25 0 35 -3 9 -5 1 -5 -18z"/>
<path d="M6878 3063 c12 -2 32 -2 45 0 12 2 2 4 -23 4 -25 0 -35 -2 -22 -4z"/>
<path d="M6138 3053 c-22 -6 -32 -33 -12 -33 8 0 17 7 20 15 4 8 10 13 14 10
5 -3 11 -1 15 5 6 10 -6 11 -37 3z"/>
<path d="M5920 3019 c0 -5 5 -7 10 -4 6 3 10 8 10 11 0 2 -4 4 -10 4 -5 0 -10
-5 -10 -11z"/>
<path d="M5493 2975 c0 -22 2 -30 4 -17 2 12 2 30 0 40 -3 9 -5 -1 -4 -23z"/>
<path d="M6615 3000 c-3 -5 -1 -10 4 -10 6 0 11 5 11 10 0 6 -2 10 -4 10 -3 0
-8 -4 -11 -10z"/>
<path d="M6125 2990 c-3 -5 1 -10 9 -10 9 0 16 5 16 10 0 6 -4 10 -9 10 -6 0
-13 -4 -16 -10z"/>
<path d="M8422 2970 c0 -14 2 -19 5 -12 2 6 2 18 0 25 -3 6 -5 1 -5 -13z"/>
<path d="M5943 2973 c-12 -2 -24 -11 -27 -19 -4 -11 4 -14 33 -14 34 0 38 3
34 20 -3 11 -8 19 -12 19 -3 -1 -16 -4 -28 -6z"/>
<path d="M7836 2965 c-3 -8 -1 -15 4 -15 6 0 10 7 10 15 0 8 -2 15 -4 15 -2 0
-6 -7 -10 -15z"/>
<path d="M6138 2943 c6 -2 18 -2 25 0 6 3 1 5 -13 5 -14 0 -19 -2 -12 -5z"/>
<path d="M6515 2940 c3 -5 22 -10 41 -10 19 0 34 5 34 10 0 6 -18 10 -41 10
-24 0 -38 -4 -34 -10z"/>
<path d="M7805 2930 c-35 -6 -31 -7 29 -9 38 0 67 1 64 4 -10 10 -52 12 -93 5z"/>
<path d="M8220 2930 c-124 -5 -106 -6 124 -8 148 -1 267 0 265 2 -9 7 -252 11
-389 6z"/>
<path d="M5573 2913 c15 -2 39 -2 55 0 15 2 2 4 -28 4 -30 0 -43 -2 -27 -4z"/>
<path d="M5683 2913 c9 -2 25 -2 35 0 9 3 1 5 -18 5 -19 0 -27 -2 -17 -5z"/>
<path d="M5912 2913 c37 -2 100 -2 140 0 40 1 10 3 -67 3 -77 0 -110 -1 -73
-3z"/>
<path d="M6143 2913 c9 -2 25 -2 35 0 9 3 1 5 -18 5 -19 0 -27 -2 -17 -5z"/>
<path d="M7508 2913 c12 -2 30 -2 40 0 9 3 -1 5 -23 4 -22 0 -30 -2 -17 -4z"/>
<path d="M3983 2789 c4 -13 8 -51 9 -84 1 -52 2 -54 5 -16 4 43 4 43 21 20 11
-16 12 -24 4 -27 -16 -5 -15 -29 2 -35 8 -3 23 -3 34 0 29 7 32 -6 33 -106 0
-63 4 -91 12 -91 8 0 7 -3 -2 -9 -7 -5 -9 -11 -4 -14 5 -3 17 2 25 13 11 12
24 17 38 13 l22 -6 -22 -12 -23 -12 28 -7 28 -7 -33 -17 c-18 -10 -33 -22 -34
-27 -2 -18 44 -17 61 0 16 16 17 16 30 -1 19 -26 16 -34 -10 -34 -15 0 -28 -8
-34 -22 l-10 -23 -7 22 c-11 35 -32 34 -52 -2 -18 -34 -15 -53 5 -40 6 3 11
17 11 31 0 13 4 24 9 24 13 0 22 -16 14 -24 -14 -13 -12 -38 3 -32 8 3 14 2
14 -3 0 -5 -9 -11 -20 -14 -11 -3 -20 -10 -20 -15 0 -5 9 -12 20 -15 31 -8 24
-27 -10 -27 -30 0 -37 -11 -24 -44 6 -15 8 -15 19 1 16 22 29 12 20 -16 -5
-17 -15 -21 -46 -21 -42 0 -46 -5 -25 -32 15 -21 42 -24 50 -5 5 9 7 9 12 0 3
-8 15 -11 28 -7 18 4 25 1 29 -15 6 -23 2 -22 146 -25 77 -1 84 1 87 19 2 11
12 27 23 37 24 19 28 56 6 64 -8 4 -15 14 -15 24 0 19 32 60 47 60 15 0 77 32
85 44 5 7 8 6 8 -3 0 -7 21 8 46 33 25 26 44 53 41 60 -3 7 -2 18 2 25 6 10
12 9 24 -4 9 -9 21 -14 25 -11 5 3 10 51 10 107 1 56 5 105 8 108 3 3 4 -53 2
-126 -2 -78 1 -131 6 -130 6 1 12 -7 14 -17 4 -17 0 -18 -32 -13 -31 5 -36 3
-36 -13 0 -10 5 -22 10 -25 19 -12 10 -27 -12 -22 -12 4 -28 1 -35 -5 -10 -8
-13 -6 -13 11 0 11 -4 21 -10 21 -11 0 -14 -43 -3 -54 12 -11 14 -56 4 -56 -6
0 -8 7 -5 15 4 8 1 15 -4 15 -6 0 -12 -10 -14 -22 -2 -14 -10 -23 -20 -23 -26
0 -27 -19 -2 -23 16 -2 23 -12 26 -33 4 -24 2 -28 -13 -24 -9 3 -24 -1 -33
-10 -17 -18 -18 -16 39 -80 30 -34 32 -40 17 -43 -10 -2 -25 -18 -32 -38 -9
-22 -17 -31 -24 -24 -6 6 -6 18 2 34 13 29 5 66 -14 66 -10 0 -13 -7 -8 -24 5
-20 0 -25 -25 -34 -29 -10 -35 -8 -32 10 1 9 -39 21 -46 14 -4 -3 1 -6 10 -6
19 0 24 -44 7 -55 -5 -3 -10 -15 -10 -25 0 -14 5 -18 16 -13 14 5 15 3 5 -15
-7 -12 -16 -22 -22 -22 -6 0 -7 5 -3 11 5 9 -6 10 -39 7 -43 -5 -46 -4 -58 23
-15 38 -28 37 -27 -1 1 -24 6 -31 27 -36 42 -8 61 -13 161 -39 81 -21 161 -33
317 -50 24 -3 30 0 26 11 -3 8 -9 14 -13 14 -13 0 1 43 20 61 9 10 25 19 35
20 10 2 17 7 14 10 -2 4 5 17 15 28 21 23 51 24 78 2 14 -12 14 -16 3 -28 -16
-15 -41 -17 -50 -3 -11 17 -23 11 -42 -20 -10 -18 -23 -28 -31 -25 -8 3 -12 0
-10 -7 3 -7 15 -15 28 -18 34 -8 48 -35 29 -57 -33 -37 -34 -46 -5 -41 14 3
26 1 26 -3 0 -29 103 -47 139 -25 6 4 17 3 24 -2 15 -12 110 -48 119 -45 4 2
31 -2 61 -7 42 -8 61 -7 88 4 19 9 27 15 18 16 -9 0 -30 7 -45 16 l-29 15 40
-6 c22 -3 65 -7 95 -8 30 -2 78 -9 107 -16 29 -7 58 -11 65 -8 13 4 -52 25
-100 32 -15 2 -47 13 -72 24 -47 21 -96 28 -85 12 3 -6 -12 -9 -35 -8 -31 1
-40 5 -40 19 0 18 -54 53 -69 44 -5 -3 -14 1 -21 9 -10 12 -10 15 3 15 21 0
45 50 42 88 -2 28 1 31 39 41 78 20 161 31 281 38 66 3 126 11 134 17 12 9 13
8 7 -3 -6 -9 -5 -12 4 -9 8 2 16 10 18 16 5 17 -50 15 -282 -11 -222 -25 -231
-24 -219 36 3 18 10 35 16 38 5 4 2 11 -7 16 -16 9 -16 11 -2 22 13 11 16 11
16 1 0 -9 11 -11 39 -6 40 6 74 0 67 -13 -3 -4 35 -7 83 -7 l89 1 0 42 c1 29
-3 41 -11 38 -23 -9 -287 -11 -284 -2 1 4 56 10 122 13 66 3 128 6 138 7 19 1
24 17 5 18 -87 5 -138 4 -138 -3 0 -4 -12 -8 -27 -7 l-28 1 25 9 c18 6 8 7
-34 4 -57 -4 -58 -3 -69 26 -10 26 -16 29 -42 25 -35 -6 -47 0 -63 30 -8 15
-8 24 0 32 19 19 -7 62 -37 62 l-25 0 0 220 0 220 68 2 67 2 -65 3 c-35 2 -70
9 -78 15 -10 9 -16 8 -24 -3 -7 -11 -11 -11 -15 -1 -2 6 -11 12 -19 12 -8 0
-14 -6 -14 -12 0 -10 -27 -12 -110 -10 -60 2 -110 7 -110 12 0 5 8 10 18 12 9
3 -3 5 -28 6 -98 3 -542 22 -659 29 l-124 6 6 -24z m495 -179 c2 -156 2 -161
-17 -151 -10 6 -21 17 -24 24 -3 8 -22 22 -42 31 -31 15 -41 16 -67 5 -40 -17
-44 -8 -41 98 1 48 2 104 3 125 l0 36 93 -4 92 -4 3 -160z m549 23 c-2 -21 -4
-4 -4 37 0 41 2 58 4 38 2 -21 2 -55 0 -75z m-301 87 c10 0 14 -16 14 -62 0
-70 -9 -75 -11 -5 -2 45 -3 46 -37 49 -20 2 -38 9 -40 17 -4 11 3 13 28 8 18
-4 39 -7 46 -7z m268 -24 c3 -15 4 -31 1 -35 -2 -4 -28 -4 -57 0 -29 4 -68 8
-86 8 l-33 1 3 -82 3 -83 80 0 c44 0 83 -4 87 -9 10 -14 8 -218 -3 -237 -5
-10 -17 -20 -28 -24 -26 -8 -35 -47 -13 -60 9 -5 46 -10 82 -10 68 0 99 -18
41 -23 -19 -2 -42 -13 -53 -25 -11 -12 -16 -16 -12 -8 9 18 -15 32 -43 24 -13
-3 -23 -1 -23 4 0 5 -6 10 -14 10 -7 0 -13 -7 -11 -16 1 -10 10 -15 25 -13 14
2 20 0 15 -7 -4 -7 6 -14 24 -17 41 -9 39 -24 -3 -24 -32 0 -48 -15 -51 -45
-1 -13 -20 -18 -21 -5 -1 6 -2 15 -3 21 0 5 -6 7 -11 4 -6 -4 -8 -10 -5 -15 3
-5 1 -11 -4 -14 -9 -6 -25 28 -35 77 -4 15 -13 27 -20 27 -9 0 -12 7 -9 19 3
11 -7 31 -26 52 -17 18 -31 39 -31 45 0 7 -3 19 -6 28 -3 9 -1 16 6 16 6 0 8
-4 5 -10 -3 -5 -2 -10 3 -10 13 0 22 49 11 56 -5 3 -9 96 -9 207 l0 202 109 0
109 0 6 -29z m-314 -48 c0 -10 7 -18 15 -18 18 0 20 -17 3 -22 -8 -3 -9 -12 0
-36 6 -17 7 -34 2 -37 -5 -3 -11 7 -13 22 -3 19 -4 13 -5 -17 -1 -32 1 -41 8
-30 8 12 10 11 10 -7 0 -16 -5 -20 -19 -16 -15 4 -19 17 -24 71 -6 79 1 141
14 121 5 -8 9 -22 9 -31z m319 -105 c1 -13 -3 -23 -9 -23 -6 0 -10 27 -9 63 1
59 2 60 10 22 4 -22 8 -50 8 -62z m-759 -24 c0 -5 5 -7 12 -3 7 4 8 3 4 -4 -4
-7 -2 -12 5 -12 10 0 10 -3 2 -11 -9 -9 -16 -8 -27 4 -18 18 -21 37 -6 37 6 0
10 -5 10 -11z m-22 -60 c12 -18 11 -20 -5 -17 -10 2 -19 11 -21 21 -5 23 10
21 26 -4z m332 -109 c0 -5 -6 -11 -12 -13 -7 -3 -3 -6 10 -6 15 -1 22 -7 22
-21 0 -17 -4 -18 -25 -10 -26 10 -65 45 -65 58 0 4 16 6 35 4 19 -2 35 -8 35
-12z m440 -130 c0 -5 -2 -10 -4 -10 -3 0 -8 5 -11 10 -3 6 -1 10 4 10 6 0 11
-4 11 -10z m-752 -19 c14 -9 7 -61 -9 -61 -13 0 -31 40 -25 56 6 16 15 17 34
5z m-73 -108 c-2 -10 -4 -20 -4 -22 -1 -3 -6 0 -12 6 -6 6 -8 16 -5 22 11 17
25 13 21 -6z m645 -28 c18 -21 3 -32 -22 -16 -11 7 -17 8 -13 2 8 -14 -5 -14
-25 -1 -13 9 -13 11 0 20 22 14 46 12 60 -5z m-105 -5 c-3 -5 -10 -10 -16 -10
-5 0 -9 5 -9 10 0 6 7 10 16 10 8 0 12 -4 9 -10z m395 -19 c13 -26 13 -28 -9
-34 -14 -3 -18 2 -19 24 -1 33 13 38 28 10z m-490 -16 c0 -8 -4 -15 -10 -15
-5 0 -10 7 -10 15 0 8 5 15 10 15 6 0 10 -7 10 -15z m858 -2 c-10 -2 -26 -2
-35 0 -10 3 -2 5 17 5 19 0 27 -2 18 -5z m-728 -18 c11 -13 11 -18 0 -28 -10
-10 -12 -9 -7 6 4 11 1 17 -8 17 -8 0 -15 5 -15 10 0 15 16 12 30 -5z m60 11
c0 -3 -4 -8 -10 -11 -5 -3 -10 -1 -10 4 0 6 5 11 10 11 6 0 10 -2 10 -4z m168
-3 c-1 -5 1 -23 5 -40 5 -24 12 -33 27 -33 21 0 28 -24 10 -35 -5 -3 -10 0
-10 8 0 7 -11 19 -25 25 -29 13 -45 60 -24 73 17 11 20 11 17 2z m-106 -31 l4
-27 -31 15 -32 15 26 12 c14 6 27 12 27 12 1 1 4 -11 6 -27z m-99 -43 c-8 -8
-6 -19 4 -41 10 -20 12 -33 5 -40 -7 -7 -12 0 -17 21 -4 17 -11 31 -15 31 -5
0 -7 -6 -4 -14 4 -11 0 -13 -15 -9 -16 4 -18 8 -9 22 6 10 20 22 32 28 29 14
32 15 19 2z m47 -39 c6 -11 9 -20 7 -20 -2 0 -12 9 -22 20 -10 11 -13 20 -7
20 6 0 16 -9 22 -20z m-260 -10 c0 -5 -2 -10 -4 -10 -3 0 -8 5 -11 10 -3 6 -1
10 4 10 6 0 11 -4 11 -10z m87 -30 c1 -11 -2 -18 -8 -15 -11 7 -12 35 -1 35 4
0 8 -9 9 -20z m-107 -40 c0 -5 -4 -10 -9 -10 -6 0 -13 5 -16 10 -3 6 1 10 9
10 9 0 16 -4 16 -10z m521 -49 c-7 -11 -17 -21 -24 -21 -9 0 -8 3 1 9 9 5 11
18 6 37 -6 27 -5 28 11 13 14 -14 15 -21 6 -38z m-31 9 c0 -5 -7 -7 -15 -4 -8
4 -15 8 -15 10 0 2 7 4 15 4 8 0 15 -4 15 -10z m72 -32 c-9 -9 -12 -7 -12 12
0 19 3 21 12 12 9 -9 9 -15 0 -24z m355 -114 c-3 -3 -12 -4 -19 -1 -8 3 -5 6
6 6 11 1 17 -2 13 -5z"/>
<path d="M4785 2700 c3 -5 11 -10 16 -10 6 0 7 5 4 10 -3 6 -11 10 -16 10 -6
0 -7 -4 -4 -10z"/>
<path d="M4878 2703 c6 -2 18 -2 25 0 6 3 1 5 -13 5 -14 0 -19 -2 -12 -5z"/>
<path d="M4883 2683 c9 -2 23 -2 30 0 6 3 -1 5 -18 5 -16 0 -22 -2 -12 -5z"/>
<path d="M4802 2327 c-13 -15 1 -42 17 -33 13 9 15 33 2 40 -5 3 -13 0 -19 -7z"/>
<path d="M4905 2270 c-3 -5 -4 -14 -1 -19 3 -5 -1 -14 -9 -21 -8 -7 -15 -19
-15 -26 0 -28 36 -10 41 21 3 13 14 21 32 23 30 4 36 17 11 26 -24 9 -52 7
-59 -4z"/>
<path d="M4810 2195 c0 -8 5 -15 10 -15 6 0 10 7 10 15 0 8 -4 15 -10 15 -5 0
-10 -7 -10 -15z"/>
<path d="M4840 2131 c0 -12 28 -22 35 -12 3 5 -2 12 -11 15 -21 8 -24 8 -24
-3z"/>
<path d="M8315 2764 c-203 -7 -515 -17 -691 -23 -177 -6 -349 -11 -383 -11
l-60 0 5 -315 c4 -173 4 -321 1 -328 -3 -9 -34 -11 -123 -7 l-119 5 -3 255
c-2 140 0 278 3 306 l6 50 83 3 c46 1 96 6 112 11 36 11 -188 11 -238 0 l-33
-7 28 -8 28 -7 -2 -353 -1 -353 -32 -6 c-94 -16 -256 -27 -256 -17 0 4 9 18
20 31 11 13 20 28 20 35 0 6 8 20 18 31 10 10 24 34 31 52 19 46 13 48 -130
57 l-119 7 0 259 0 258 192 1 c105 0 194 2 196 5 3 3 -94 5 -216 5 l-222 0 -1
-205 c-1 -113 -2 -211 -3 -217 -1 -7 1 -17 5 -23 4 -5 5 -23 2 -38 -4 -21 -10
-26 -22 -21 -31 13 -114 25 -135 20 -11 -3 -26 0 -33 6 -9 7 -13 7 -13 0 0
-15 21 -20 129 -32 51 -6 98 -13 103 -16 14 -9 0 -71 -29 -128 -18 -35 -21
-47 -9 -37 9 7 16 17 16 22 0 5 11 32 25 60 13 29 22 55 20 59 -3 4 12 4 33
-1 20 -5 72 -9 115 -9 44 0 77 -4 77 -10 0 -5 -4 -10 -9 -10 -9 0 -70 -93
-106 -163 -11 -21 -29 -40 -40 -42 -11 -2 -53 -10 -93 -16 -40 -7 -75 -16 -78
-21 -9 -13 -38 -9 -94 14 -34 14 -54 18 -58 11 -4 -6 -56 -16 -117 -23 -60 -7
-114 -16 -118 -20 -13 -11 2 -35 32 -53 32 -19 66 -23 56 -7 -5 7 15 8 62 3
37 -4 76 -7 86 -7 9 0 17 -4 17 -8 0 -4 -49 -9 -110 -9 -142 -2 -135 -1 -135
-26 0 -12 -3 -24 -6 -27 -5 -5 -178 20 -209 30 -23 8 -180 10 -180 2 0 -7 17
-11 155 -35 72 -12 151 -17 280 -16 184 1 289 11 729 73 115 17 213 30 218 30
4 0 8 5 8 10 0 6 -11 10 -24 10 -14 0 -37 5 -53 11 -15 5 -77 15 -137 20 -117
10 -168 17 -175 25 -2 2 13 4 34 4 21 0 35 3 32 7 -4 3 -23 6 -44 5 -22 -1
-33 2 -27 8 5 5 56 11 114 14 58 4 179 13 270 21 245 22 299 24 306 14 3 -6
11 -5 20 2 7 6 22 8 31 4 39 -16 144 -23 178 -12 26 8 39 7 47 -1 9 -9 5 -12
-17 -13 -46 -2 43 -16 147 -23 96 -7 154 -26 161 -53 3 -13 9 -8 21 20 9 22
16 42 14 46 -2 5 -41 38 -88 76 -47 37 -92 75 -101 84 -8 9 -35 32 -58 51 -24
19 -53 45 -65 57 -21 23 -145 83 -169 83 -7 0 -22 6 -32 14 -18 13 -18 14 7 9
23 -4 26 -2 21 16 -3 12 -9 21 -13 21 -4 0 -10 9 -13 21 -4 15 0 23 13 26 18
5 18 7 5 26 -8 12 -15 25 -15 29 0 12 195 0 292 -18 19 -3 117 -6 166 -5 27 1
32 5 32 24 0 40 -16 46 -109 41 -47 -3 -97 -7 -111 -11 -33 -7 -123 -4 -240 9
-52 5 -103 10 -112 10 -16 -1 -18 11 -18 104 l0 104 53 1 c28 0 88 2 132 4 44
2 146 7 227 10 l147 7 0 -99 c0 -54 0 -104 1 -110 0 -9 18 -13 58 -13 90 0
242 -28 296 -55 27 -14 52 -23 54 -20 3 3 0 5 -7 5 -7 0 -9 5 -6 10 3 6 -2 10
-11 10 -10 0 -14 3 -11 7 4 3 53 7 109 8 121 3 318 15 336 20 6 3 12 -3 12
-12 0 -9 3 -14 6 -10 3 3 6 62 5 130 -1 68 3 135 8 149 7 19 7 27 -2 30 -7 2
-178 -2 -382 -8z m281 -156 c4 -6 3 -8 -4 -4 -6 3 -30 1 -54 -5 -50 -14 -120
-4 -83 11 31 13 133 12 141 -2z m84 -4 c0 -8 -4 -12 -10 -9 -5 3 -10 10 -10
16 0 5 5 9 10 9 6 0 10 -7 10 -16z m-340 -8 c0 -2 -9 -6 -20 -9 -11 -3 -20 -1
-20 4 0 5 9 9 20 9 11 0 20 -2 20 -4z m316 -43 c-3 -7 1 -13 9 -13 8 0 15 -7
15 -15 0 -9 -6 -15 -12 -14 -7 1 -20 -1 -28 -4 -8 -4 -35 -3 -60 2 -25 5 -35
9 -22 10 12 1 22 6 22 11 0 6 10 10 23 11 12 0 16 3 8 6 -11 4 -11 7 0 13 20
13 50 8 45 -7z m-133 0 c-13 -2 -33 -2 -45 0 -13 2 -3 4 22 4 25 0 35 -2 23
-4z m-103 -43 c-8 -5 -19 -10 -25 -10 -5 0 -3 5 5 10 8 5 20 10 25 10 6 0 3
-5 -5 -10z m-1116 -132 c-3 -4 9 -5 25 -3 17 2 30 0 29 -3 -1 -4 3 -18 10 -32
12 -23 12 -24 -2 -6 -14 17 -16 17 -22 3 -3 -9 -10 -14 -15 -11 -15 9 -10 22
9 26 16 3 16 4 -1 11 -14 5 -21 -1 -32 -26 -14 -31 -14 -29 -13 48 0 67 2 73
8 40 4 -22 6 -43 4 -47z m43 -148 c19 -44 42 -144 43 -188 0 -35 -4 -37 -62
-46 l-38 -5 0 150 c0 148 0 149 21 137 11 -7 27 -29 36 -48z m-244 -169 l87
-1 0 -29 0 -28 -102 -7 c-57 -4 -111 -9 -120 -12 -15 -5 -18 1 -18 38 0 42 1
43 32 41 18 -1 72 -2 121 -2z m-1023 -235 c0 -2 -11 -6 -25 -8 -14 -3 -25 -1
-25 3 0 5 11 9 25 9 14 0 25 -2 25 -4z m290 -26 c0 -5 -19 -10 -42 -10 -32 0
-39 3 -28 10 20 13 70 13 70 0z"/>
<path d="M4848 2763 c12 -2 30 -2 40 0 9 3 -1 5 -23 4 -22 0 -30 -2 -17 -4z"/>
<path d="M4928 2763 c6 -2 18 -2 25 0 6 3 1 5 -13 5 -14 0 -19 -2 -12 -5z"/>
<path d="M5490 2730 c0 -6 7 -10 15 -10 8 0 15 2 15 4 0 2 -7 6 -15 10 -8 3
-15 1 -15 -4z"/>
<path d="M5538 2723 c7 -3 16 -2 19 1 4 3 -2 6 -13 5 -11 0 -14 -3 -6 -6z"/>
<path d="M5598 2723 c12 -2 30 -2 40 0 9 3 -1 5 -23 4 -22 0 -30 -2 -17 -4z"/>
<path d="M5715 2684 c5 -51 11 -63 24 -48 13 14 1 94 -14 94 -10 0 -12 -13
-10 -46z"/>
<path d="M5762 2379 l3 -352 105 1 c94 1 102 0 76 -12 -20 -9 -25 -15 -15 -19
8 -3 1 -3 -16 -1 -38 7 -51 7 -102 6 l-43 -2 0 -51 0 -51 33 7 c41 9 47 13 47
30 0 16 13 21 76 31 27 4 43 9 37 11 -22 8 -14 25 7 18 14 -4 20 -2 20 9 0 26
48 56 81 49 24 -5 28 -3 23 11 -3 9 -1 23 6 31 11 13 7 15 -23 15 -20 0 -46
-4 -59 -9 -13 -4 -45 -5 -73 -1 l-50 6 80 7 c44 4 106 8 137 9 l57 2 11 46 c6
25 12 54 15 64 5 19 -10 46 -26 46 -4 0 -4 -13 1 -30 9 -30 8 -30 -31 -30
l-39 0 0 95 c0 95 0 95 25 95 24 0 25 2 25 70 0 39 0 73 0 78 0 4 -11 8 -25
10 -26 3 -26 5 -24 68 1 35 -1 67 -4 71 -4 3 -7 -26 -7 -66 l0 -72 -112 3
-113 3 -5 75 -5 75 -48 3 -47 3 2 -352z m328 104 c0 -36 -3 -64 -6 -60 -4 3
-6 31 -6 62 1 66 1 65 7 65 3 0 5 -30 5 -67z m0 -123 c0 -26 -3 -68 -6 -94
l-7 -46 -108 0 -109 0 0 89 0 90 28 4 c15 2 66 4 115 4 l87 0 0 -47z m30 -180
c0 -5 -5 -10 -11 -10 -5 0 -7 5 -4 10 3 6 8 10 11 10 2 0 4 -4 4 -10z m-86
-105 c-10 -8 -30 -14 -44 -14 -24 0 -24 0 -6 14 11 8 31 15 45 15 24 0 24 -1
5 -15z m-187 -99 c-5 -16 -22 -17 -40 -4 -15 12 -14 13 13 13 16 0 29 -4 27
-9z"/>
<path d="M7150 2679 c0 -5 5 -7 10 -4 6 3 10 8 10 11 0 2 -4 4 -10 4 -5 0 -10
-5 -10 -11z"/>
<path d="M7148 2653 c7 -3 16 -2 19 1 4 3 -2 6 -13 5 -11 0 -14 -3 -6 -6z"/>
<path d="M3942 2518 c3 -7 14 -18 26 -24 22 -11 22 -11 -4 -23 -16 -7 -24 -17
-20 -26 3 -9 0 -12 -10 -8 -8 3 -31 -3 -52 -13 l-37 -17 28 -8 c16 -4 35 -5
43 -2 10 4 12 0 8 -12 -5 -12 1 -24 17 -37 16 -13 18 -18 7 -14 -12 4 -18 0
-18 -11 0 -9 -8 -25 -17 -36 -17 -18 -17 -19 2 -33 11 -7 26 -19 34 -25 12
-11 13 -8 8 13 -5 17 -3 28 6 31 6 3 2 6 -10 6 -35 1 -27 21 7 21 28 0 30 -2
24 -27 -7 -25 -6 -27 9 -15 14 12 15 11 11 -13 -4 -24 -3 -25 18 -14 13 7 24
12 26 11 1 -1 11 -2 22 -2 24 0 26 13 5 34 -17 17 -20 30 -5 21 6 -3 10 3 10
14 0 11 -5 23 -11 27 -6 3 -9 17 -6 30 2 13 0 25 -6 27 -6 2 -6 10 1 23 8 16
4 26 -26 61 -36 40 -99 69 -90 41z"/>
<path d="M8389 2453 c-1 -5 -1 -12 0 -17 1 -5 -10 -6 -24 -3 -18 3 -28 0 -32
-10 -4 -11 -15 -13 -37 -9 l-31 5 34 -28 c38 -34 72 -47 64 -25 -4 12 5 13 50
8 44 -5 59 -3 72 10 18 18 35 21 35 6 0 -10 -37 -34 -55 -36 -5 0 -23 -6 -38
-13 -16 -6 -33 -8 -39 -5 -29 18 25 -40 94 -101 44 -38 103 -92 131 -120 113
-110 85 -101 351 -110 129 -4 241 -3 248 1 9 6 -5 14 -42 25 -56 17 -87 46
-34 33 20 -5 25 -4 19 5 -5 10 4 11 39 6 70 -11 55 8 -26 34 -55 16 -104 23
-198 25 -143 3 -165 9 -150 37 8 14 6 23 -10 39 -11 11 -26 20 -33 20 -7 0
-29 18 -47 39 -28 32 -38 37 -53 29 -27 -14 -42 -4 -45 28 -1 15 -9 38 -18 51
-13 20 -20 23 -51 17 -27 -5 -34 -4 -28 6 6 10 -7 11 -61 6 -38 -4 -82 -2 -99
3 -26 8 -22 10 35 12 57 2 60 3 25 8 -24 4 -39 11 -37 19 1 6 0 12 -3 12 -3 0
-6 -3 -6 -7z m728 -359 c-3 -3 -12 -4 -19 -1 -8 3 -5 6 6 6 11 1 17 -2 13 -5z"/>
<path d="M8499 2433 c-7 -10 -10 -15 -5 -11 4 3 20 3 34 -1 15 -5 36 -5 47 0
15 6 9 8 -23 8 -26 1 -41 5 -37 11 10 17 -2 11 -16 -7z"/>
<path d="M8688 2438 c-2 -7 -1 -35 3 -63 l6 -50 1 63 c2 59 -1 76 -10 50z"/>
<path d="M3686 2412 c-4 -11 -7 -54 -8 -96 -1 -42 -5 -79 -10 -82 -4 -3 -8 4
-8 14 0 11 -7 25 -15 32 -8 7 -15 17 -15 22 0 6 7 4 17 -3 14 -12 16 -12 11 1
-2 8 -12 16 -21 18 -23 5 -22 -27 1 -68 16 -30 16 -31 -3 -46 -18 -13 -21 -12
-37 8 l-17 23 3 -27 c2 -15 -1 -25 -5 -22 -5 3 -9 -1 -9 -10 0 -10 21 -18 73
-26 39 -7 96 -16 126 -21 81 -13 98 -12 104 11 3 13 0 20 -9 20 -8 0 -14 7
-14 15 0 9 -9 15 -24 15 -32 0 -41 13 -61 90 -9 36 -21 74 -25 85 -5 11 -10
29 -12 40 -4 27 -35 31 -42 7z m-26 -222 c0 -5 -8 -10 -17 -10 -15 0 -16 2 -3
10 19 12 20 12 20 0z"/>
<path d="M7898 2423 c7 -3 16 -2 19 1 4 3 -2 6 -13 5 -11 0 -14 -3 -6 -6z"/>
<path d="M7440 2370 c0 -5 7 -10 16 -10 8 0 12 5 9 10 -3 6 -10 10 -16 10 -5
0 -9 -4 -9 -10z"/>
<path d="M4080 2360 c0 -5 7 -10 16 -10 8 0 12 5 9 10 -3 6 -10 10 -16 10 -5
0 -9 -4 -9 -10z"/>
<path d="M4687 2359 c7 -7 15 -10 18 -7 3 3 -2 9 -12 12 -14 6 -15 5 -6 -5z"/>
<path d="M6860 2350 l-25 -8 23 -7 c13 -4 22 -15 22 -27 0 -10 -4 -16 -10 -13
-5 3 -18 1 -27 -4 -16 -9 -14 -10 9 -11 29 0 46 -15 25 -22 -15 -5 -139 -2
-229 6 -38 3 -68 1 -68 -3 0 -18 36 -22 181 -20 l147 1 -1 56 c-2 59 -7 65
-47 52z"/>
<path d="M6560 2340 c-8 -5 -10 -10 -4 -10 6 0 9 -10 7 -22 -4 -21 -1 -23 49
-24 29 -1 40 0 23 3 -43 7 -50 18 -24 42 l23 21 -30 0 c-16 0 -36 -5 -44 -10z"/>
<path d="M6717 2338 c16 -8 36 -8 65 -1 l43 11 -65 0 c-53 1 -61 -1 -43 -10z"/>
<path d="M6360 2330 c0 -13 33 -21 42 -12 6 6 -1 11 -16 14 -14 3 -26 2 -26
-2z"/>
<path d="M6511 2331 c-8 -5 -11 -16 -7 -29 4 -11 2 -23 -5 -27 -17 -11 10 -25
46 -25 24 1 27 3 13 10 -10 6 -14 18 -11 31 5 18 3 20 -16 14 -23 -7 -28 4 -9
23 14 14 9 15 -11 3z"/>
<path d="M7095 2315 c-5 -1 -36 -8 -67 -15 -37 -9 -58 -19 -61 -30 -4 -14 5
-16 77 -15 l81 2 3 32 c3 30 -4 35 -33 26z"/>
<path d="M6721 2293 c-6 -11 -11 -13 -11 -5 0 7 -5 10 -11 6 -14 -9 8 -24 36
-24 17 0 18 2 5 11 -11 7 -5 8 23 3 32 -5 36 -4 31 10 -8 22 -60 21 -73 -1z"/>
<path d="M6206 2271 c-4 -5 -2 -12 3 -15 5 -4 12 -2 15 3 4 5 2 12 -3 15 -5 4
-12 2 -15 -3z"/>
<path d="M3850 2260 c0 -15 21 -23 32 -12 6 6 2 11 -11 15 -12 3 -21 1 -21 -3z"/>
<path d="M5300 2239 c0 -5 4 -8 9 -4 5 3 12 1 15 -4 3 -5 -1 -11 -9 -15 -22
-8 -18 -25 5 -19 11 3 20 9 20 14 0 5 10 8 23 8 16 -1 18 -2 5 -6 -20 -5 -24
-23 -5 -23 28 0 40 17 28 38 -9 18 -16 20 -36 12 -15 -6 -27 -6 -30 0 -8 13
-25 13 -25 -1z"/>
<path d="M3892 2221 c-10 -6 -10 -10 3 -21 18 -15 42 0 31 19 -8 13 -16 14
-34 2z"/>
<path d="M6611 2204 l-34 -24 44 -2 c75 -2 116 -1 164 6 63 10 53 30 -16 33
-30 1 -70 4 -89 6 -26 4 -44 -1 -69 -19z"/>
<path d="M5180 2200 c0 -5 6 -10 14 -10 8 0 18 5 21 10 3 6 -3 10 -14 10 -12
0 -21 -4 -21 -10z"/>
<path d="M3536 2185 c-3 -9 0 -15 9 -15 16 0 20 16 6 24 -5 3 -11 -1 -15 -9z"/>
<path d="M4010 2192 c0 -8 31 -21 53 -22 13 0 8 17 -5 17 -7 0 -21 4 -30 8
-10 4 -18 3 -18 -3z"/>
<path d="M3895 2160 c3 -5 8 -10 11 -10 2 0 4 5 4 10 0 6 -5 10 -11 10 -5 0
-7 -4 -4 -10z"/>
<path d="M6745 2160 c3 -5 14 -10 23 -10 15 0 15 2 2 10 -20 13 -33 13 -25 0z"/>
<path d="M4007 2154 c-3 -3 -22 -6 -41 -6 -22 0 -33 -4 -30 -10 4 -6 -1 -8
-14 -4 -13 4 -22 1 -25 -8 -4 -10 -1 -13 9 -9 17 6 19 -8 2 -25 -9 -9 -2 -12
33 -14 83 -3 99 2 81 25 -9 10 -8 19 4 35 12 18 13 22 1 22 -7 0 -16 -3 -20
-6z"/>
<path d="M4058 2139 c-25 -26 -23 -30 12 -17 17 5 29 15 27 21 -6 18 -21 16
-39 -4z"/>
<path d="M4530 2112 c0 -14 11 -21 26 -15 8 3 11 9 8 14 -7 11 -34 12 -34 1z"/>
<path d="M6138 2092 c-22 -4 -23 -18 -3 -26 9 -3 18 1 22 10 7 18 3 21 -19 16z"/>
<path d="M6745 2079 c-16 -6 -14 -8 13 -8 33 -1 41 4 20 12 -7 2 -22 1 -33 -4z"/>
<path d="M6200 2010 c0 -11 -7 -20 -15 -20 -8 0 -15 -3 -15 -7 0 -5 -33 -8
-72 -8 -101 0 -104 -19 -4 -23 80 -3 106 -12 106 -38 0 -8 4 -14 9 -14 16 0
24 21 13 32 -6 6 0 20 19 41 39 42 37 57 -6 57 -28 0 -35 -4 -35 -20z"/>
<path d="M4536 1996 c3 -9 11 -16 16 -16 13 0 5 23 -10 28 -7 2 -10 -2 -6 -12z"/>
<path d="M4412 1988 c-14 -14 -16 -48 -3 -48 8 0 23 51 17 57 -1 2 -8 -3 -14
-9z"/>
<path d="M5283 1993 c9 -2 25 -2 35 0 9 3 1 5 -18 5 -19 0 -27 -2 -17 -5z"/>
<path d="M9270 1960 c0 -5 7 -7 15 -4 8 4 15 8 15 10 0 2 -7 4 -15 4 -8 0 -15
-4 -15 -10z"/>
<path d="M7188 1943 c6 -2 18 -2 25 0 6 3 1 5 -13 5 -14 0 -19 -2 -12 -5z"/>
<path d="M9158 1933 c7 -3 16 -2 19 1 4 3 -2 6 -13 5 -11 0 -14 -3 -6 -6z"/>
<path d="M6898 1923 c7 -3 16 -2 19 1 4 3 -2 6 -13 5 -11 0 -14 -3 -6 -6z"/>
<path d="M6828 1913 c6 -2 18 -2 25 0 6 3 1 5 -13 5 -14 0 -19 -2 -12 -5z"/>
<path d="M4337 1904 c-3 -4 1 -13 9 -22 13 -13 17 -13 24 -1 12 18 -17 38 -33
23z"/>
<path d="M7803 1876 c11 -8 25 -12 33 -9 18 7 16 9 -21 17 -28 6 -29 5 -12 -8z"/>
<path d="M4235 1856 c-28 -17 -29 -36 -2 -36 16 0 28 9 35 25 13 28 2 32 -33
11z"/>
<path d="M4955 1840 c3 -5 10 -10 16 -10 5 0 9 5 9 10 0 6 -7 10 -16 10 -8 0
-12 -4 -9 -10z"/>
<path d="M4280 1830 c0 -5 7 -10 15 -10 8 0 15 5 15 10 0 6 -7 10 -15 10 -8 0
-15 -4 -15 -10z"/>
<path d="M4159 1803 c-11 -12 -8 -13 17 -7 37 9 39 10 15 17 -11 3 -26 -2 -32
-10z"/>
<path d="M4125 1770 c-3 -5 -2 -10 4 -10 5 0 13 5 16 10 3 6 2 10 -4 10 -5 0
-13 -4 -16 -10z"/>
<path d="M7909 1773 c-1 -5 -1 -11 0 -16 1 -4 -9 -11 -21 -16 -22 -9 -417 -76
-559 -96 -20 -2 -44 -8 -54 -11 -14 -6 -16 -4 -10 7 7 11 6 12 -6 2 -8 -7 -42
-15 -75 -18 -190 -18 -263 -27 -294 -35 -45 -12 -150 -29 -220 -36 -30 -4 -58
-10 -61 -15 -3 -6 -13 -7 -22 -3 -10 3 -24 1 -32 -6 -12 -10 -15 -10 -15 3 0
20 -21 27 -81 27 -35 0 -51 -4 -55 -15 -4 -10 -14 -13 -28 -9 -12 3 -44 0 -71
-6 -28 -6 -87 -18 -132 -26 -93 -16 -133 -31 -133 -51 0 -10 4 -11 19 -1 15 9
25 7 55 -11 43 -27 46 -35 9 -28 -24 5 -63 -11 -63 -24 0 -2 20 -5 45 -5 25
-1 45 3 45 7 0 12 42 28 80 31 16 1 28 5 28 8 -2 24 6 38 28 48 14 7 23 8 19
2 -13 -21 20 -9 41 15 18 21 23 23 39 11 10 -7 19 -24 20 -36 2 -26 29 -49 42
-36 4 5 2 11 -4 13 -25 9 -12 21 29 28 23 4 50 16 61 26 13 12 28 17 44 13 13
-4 29 -1 36 4 7 6 22 11 32 10 11 0 54 5 95 11 81 12 116 16 230 26 41 3 93
10 115 15 61 14 104 20 175 25 52 4 361 52 455 71 11 2 49 9 84 15 36 5 67 12
71 14 4 2 24 5 44 7 21 1 40 6 42 10 3 4 1 8 -4 8 -6 0 -13 11 -16 25 -6 23
-24 35 -27 18z m-1675 -306 c4 4 4 0 0 -10 -6 -17 -32 -21 -71 -11 -33 9 -16
26 18 19 25 -6 28 -4 23 12 -5 17 -5 17 9 1 8 -10 17 -15 21 -11z"/>
<path d="M7724 1761 c3 -5 15 -7 26 -4 28 7 25 13 -6 13 -14 0 -23 -4 -20 -9z"/>
<path d="M7600 1746 c0 -10 28 -13 41 -5 10 6 7 9 -13 9 -16 0 -28 -2 -28 -4z"/>
<path d="M7446 1724 c-79 -14 -107 -24 -70 -24 25 0 198 30 203 36 8 8 -54 2
-133 -12z"/>
<path d="M4895 1710 c-3 -5 1 -10 9 -10 9 0 16 5 16 10 0 6 -4 10 -9 10 -6 0
-13 -4 -16 -10z"/>
<path d="M7230 1684 c-36 -8 -188 -32 -339 -54 -151 -22 -279 -44 -285 -50
-13 -13 -17 -13 126 10 68 11 137 22 153 24 17 2 59 9 95 14 36 6 122 21 192
32 70 12 140 25 155 30 l28 8 -30 0 c-16 0 -59 -6 -95 -14z"/>
<path d="M7840 1670 c-70 -13 -294 -49 -410 -65 -139 -20 -152 -24 -144 -36 3
-6 13 -8 22 -4 8 3 40 8 71 11 31 2 64 7 73 10 37 11 234 31 251 25 9 -4 52
-3 95 1 120 10 332 9 332 -2 0 -5 -4 -10 -8 -10 -5 0 -73 -9 -153 -21 -79 -11
-161 -21 -181 -21 -45 -1 -49 -11 -10 -26 59 -23 144 -30 212 -17 14 3 90 14
169 25 80 11 148 25 152 31 4 6 11 9 17 5 6 -3 13 -2 16 3 5 7 -149 27 -190
24 -6 0 -10 14 -9 31 1 17 -3 34 -9 38 -15 10 -239 8 -296 -2z"/>
<path d="M8968 1653 c6 -2 18 -2 25 0 6 3 1 5 -13 5 -14 0 -19 -2 -12 -5z"/>
<path d="M8881 1633 c-14 -11 -13 -12 10 -13 15 0 31 6 37 13 15 17 -24 18
-47 0z"/>
<path d="M8243 1613 c9 -2 23 -2 30 0 6 3 -1 5 -18 5 -16 0 -22 -2 -12 -5z"/>
<path d="M5090 1590 c0 -5 5 -10 10 -10 6 0 10 -5 10 -11 0 -6 -9 -8 -20 -4
-11 3 -20 2 -20 -3 0 -12 24 -22 52 -22 18 0 19 2 7 17 -10 11 -10 14 -1 9 15
-9 16 6 0 22 -15 15 -38 16 -38 2z"/>
<path d="M5200 1570 c0 -12 28 -25 36 -17 3 3 -4 10 -15 17 -15 7 -21 7 -21 0z"/>
<path d="M5455 1550 c4 -6 11 -8 16 -5 14 9 11 15 -7 15 -8 0 -12 -5 -9 -10z"/>
<path d="M5985 1530 c-7 -21 -30 -27 -40 -10 -10 16 -42 12 -49 -6 -4 -9 -1
-22 4 -30 15 -17 -15 -33 -49 -27 -14 2 -22 1 -19 -3 3 -3 13 -6 21 -8 8 -1
22 -8 31 -15 14 -12 16 -11 16 7 0 15 6 19 28 18 15 -1 38 -8 50 -15 23 -12
46 -6 26 7 -19 13 -23 40 -8 52 16 14 19 36 5 45 -5 3 -12 -4 -16 -15z"/>
<path d="M8275 1543 c-11 -2 -27 -7 -35 -10 -8 -3 -24 -8 -35 -9 -68 -12 -205
-48 -205 -55 0 -9 158 -2 173 8 7 4 30 8 52 10 22 2 56 7 75 13 19 5 48 12 64
15 16 3 25 10 20 14 -11 11 -83 20 -109 14z"/>
<path d="M5515 1500 c-10 -4 -14 -9 -9 -12 9 -5 54 7 54 15 0 6 -24 4 -45 -3z"/>
<path d="M5664 1490 c2 -14 5 -28 5 -32 1 -4 10 -6 21 -5 10 1 17 3 15 6 -3 2
0 10 6 18 9 10 7 13 -8 13 -10 0 -25 6 -31 12 -10 10 -12 7 -8 -12z"/>
<path d="M5460 1475 c0 -8 7 -15 15 -15 9 0 27 -7 40 -16 15 -10 32 -13 46 -9
16 5 19 4 14 -6 -6 -9 -3 -11 9 -6 10 4 20 7 22 7 8 0 3 15 -10 33 -13 17 -17
17 -50 3 -34 -14 -37 -14 -46 5 -13 22 -40 26 -40 4z"/>
<path d="M6000 1480 c0 -5 5 -10 10 -10 6 0 10 5 10 10 0 6 -4 10 -10 10 -5 0
-10 -4 -10 -10z"/>
<path d="M5776 1459 c5 -8 -1 -10 -19 -5 -14 3 -29 2 -32 -4 -3 -6 4 -10 17
-10 13 0 30 -4 38 -10 19 -12 33 9 18 27 -13 16 -32 17 -22 2z"/>
<path d="M6270 1450 c0 -5 9 -9 20 -7 31 5 36 17 7 17 -15 0 -27 -4 -27 -10z"/>
<path d="M5625 1430 c-4 -13 -2 -27 5 -34 10 -8 11 -6 5 12 -6 20 -4 23 14 20
11 -2 21 2 23 7 2 6 -7 11 -19 13 -15 2 -23 -3 -28 -18z"/>
<path d="M5443 1424 c0 -7 9 -12 19 -11 10 1 18 4 18 8 0 4 -8 9 -18 11 -11 3
-19 0 -19 -8z"/>
<path d="M5806 1425 c-3 -8 -16 -15 -28 -16 -22 0 -22 -1 -3 -8 22 -9 78 16
69 31 -8 13 -31 9 -38 -7z"/>
<path d="M5660 1389 c0 -5 5 -7 10 -4 6 3 10 8 10 11 0 2 -4 4 -10 4 -5 0 -10
-5 -10 -11z"/>
<path d="M5695 1390 c-3 -5 -2 -10 4 -10 5 0 13 5 16 10 3 6 2 10 -4 10 -5 0
-13 -4 -16 -10z"/>
<path d="M5820 1385 l-25 -14 38 -1 c26 0 37 4 37 15 0 19 -17 19 -50 0z"/>
<path d="M6007 1385 c3 -8 -2 -18 -11 -21 -9 -3 -16 -13 -16 -21 0 -12 7 -14
32 -9 18 3 37 11 43 17 6 7 6 10 0 9 -24 -5 -37 1 -32 14 3 8 0 17 -8 20 -9 3
-12 0 -8 -9z"/>
<path d="M5918 1348 c9 -9 15 -9 24 0 9 9 7 12 -12 12 -19 0 -21 -3 -12 -12z"/>
</g>
</svg>
